<svg width="65" height="66" xmlns="http://www.w3.org/2000/svg" xmlns:xlink="http://www.w3.org/1999/xlink" overflow="hidden"><defs><clipPath id="clip0"><rect x="254" y="608" width="65" height="66"/></clipPath></defs><g clip-path="url(#clip0)" transform="translate(-254 -608)"><path d="M11.2667 41.9792C11.8201 45.1053 14.803 47.1909 17.9292 46.6375 20.3059 46.2167 22.1667 44.3559 22.5875 41.9792Z" transform="matrix(1 0 0 1.01538 254 608)"/><path d="M30.6516 27.0833 11.5104 27.0833C10.5896 27.0833 8.69375 26.4943 8.69375 24.7135 8.69375 24.7135 8.32812 22.3438 9.25573 22.3438L27.8349 22.3438C30.0828 22.3438 31.5792 27.0833 30.6516 27.0833Z" transform="matrix(1 0 0 1.01538 254 608)"/><path d="M51.5396 28.7219 49.0953 22.8922C49.3842 22.9733 49.6823 23.0165 49.9823 23.0208L53.151 23.0208 53.151 17.6042 49.9823 17.6042C48.9218 17.5859 47.9208 18.0927 47.3078 18.9583L41.6406 18.9583 41.6406 21.6667 45.7031 21.6667C46.6036 23.9552 46.7188 27.3 46.7188 29.4464 46.7158 29.8359 46.6886 30.2248 46.6375 30.6109L46.6375 30.6651C46.6516 30.7114 46.6516 30.761 46.6375 30.8073 46.0792 35.4368 41.8737 38.7372 37.2442 38.179 32.8723 37.6518 29.6397 33.8531 29.8188 29.4531 29.8188 29.338 29.8188 29.2297 29.8188 29.1214L11.1651 29.1214C8.77987 30.9653 7.46362 33.8716 7.65104 36.8807 7.6572 37.0042 7.68469 37.1256 7.73229 37.2396L5.28125 37.2396 4.13698 39.9479 27.2458 39.9479C27.3068 40.0427 27.3609 40.1443 27.4286 40.2323L28.9589 42.1484C29.8458 43.3949 31.3112 44.0982 32.8385 44.0104L47.0031 44.0104C45.3824 40.0312 47.2943 35.4916 51.2734 33.8708 54.6141 32.5101 58.4521 33.6244 60.5448 36.5625L60.7885 36.5625C59.5833 31.1797 55.0266 29.338 51.5396 28.7219Z" transform="matrix(1 0 0 1.01538 254 608)"/><path d="M59.9219 40.9703C59.9219 44.1488 57.3452 46.7255 54.1667 46.7255 50.9882 46.7255 48.4115 44.1488 48.4115 40.9703 48.4115 37.7918 50.9882 35.2151 54.1667 35.2151 57.3452 35.2151 59.9219 37.7918 59.9219 40.9703Z" transform="matrix(1 0 0 1.01538 254 608)"/></g></svg>