<svg width="66" height="66" xmlns="http://www.w3.org/2000/svg" xmlns:xlink="http://www.w3.org/1999/xlink" overflow="hidden"><defs><clipPath id="clip0"><rect x="324" y="607" width="66" height="66"/></clipPath></defs><g clip-path="url(#clip0)" transform="translate(-324 -607)"><path d="M346 649.625C346 652.663 343.538 655.125 340.5 655.125 337.462 655.125 335 652.663 335 649.625 335 646.587 337.462 644.125 340.5 644.125 343.538 644.125 346 646.587 346 649.625Z"/><path d="M379 649.625C379 652.663 376.538 655.125 373.5 655.125 370.462 655.125 368 652.663 368 649.625 368 646.587 370.462 644.125 373.5 644.125 376.538 644.125 379 646.587 379 649.625Z"/><path d="M350.812 635.875 350.812 627.625 360.231 627.625C360.987 627.625 361.675 627.9 362.156 628.45L369.581 635.875 350.812 635.875ZM348.062 635.875 330.669 635.875 338.094 628.45C338.644 627.9 339.331 627.625 340.019 627.625L348.062 627.625 348.062 635.875ZM380.375 635.875 374.669 635.875C373.913 635.875 373.225 635.6 372.744 635.05L364.081 626.456C363.05 625.425 361.675 624.875 360.163 624.875L340.019 624.875C338.575 624.875 337.131 625.425 336.1 626.456L327.575 635.05C327.025 635.6 326.75 636.287 326.75 637.044L326.75 644.125C326.75 647.15 329.225 649.625 332.25 649.625L332.938 649.625C332.938 645.431 336.306 642.062 340.5 642.062 344.694 642.062 348.062 645.431 348.062 649.625L365.938 649.625C365.938 645.431 369.306 642.062 373.5 642.062 377.694 642.062 381.062 645.431 381.062 649.625L384.5 649.625C386.013 649.625 387.25 648.388 387.25 646.875L387.25 642.75C387.25 638.969 384.156 635.875 380.375 635.875Z"/></g></svg>