<svg width="66" height="66" xmlns="http://www.w3.org/2000/svg" xmlns:xlink="http://www.w3.org/1999/xlink" overflow="hidden"><defs><clipPath id="clip0"><rect x="400" y="607" width="66" height="66"/></clipPath></defs><g clip-path="url(#clip0)" transform="translate(-400 -607)"><path d="M418.562 652.375C418.562 655.033 416.408 657.188 413.75 657.188 411.092 657.188 408.938 655.033 408.938 652.375 408.938 649.717 411.092 647.562 413.75 647.562 416.408 647.562 418.562 649.717 418.562 652.375Z"/><path d="M458.438 652.375C458.438 655.033 456.283 657.188 453.625 657.188 450.967 657.188 448.812 655.033 448.812 652.375 448.812 649.717 450.967 647.562 453.625 647.562 456.283 647.562 458.438 649.717 458.438 652.375Z"/><path d="M402.75 623.5 441.25 623.5 441.25 640 402.75 640Z"/><path d="M446.75 630.375 450.875 630.375C452.112 630.375 453.212 631.2 453.487 632.369L454.862 637.112C454.862 637.181 454.931 637.181 454.931 637.25L446.75 637.25 446.75 630.375ZM450.875 627.625 444 627.625 444 637.25 444 641.375 444 652.375 446.75 652.375C446.75 648.594 449.844 645.5 453.625 645.5 457.406 645.5 460.5 648.594 460.5 652.375 462.013 652.375 463.25 651.138 463.25 649.625L463.25 642.75C463.25 641.856 462.837 641.1 462.15 640.55L458.506 637.8C458.025 637.456 457.681 636.906 457.544 636.356L456.169 631.612C455.481 629.275 453.281 627.625 450.875 627.625Z"/><path d="M441.25 652.375 420.625 652.375C420.625 648.594 417.531 645.5 413.75 645.5 409.969 645.5 406.875 648.594 406.875 652.375L402.75 652.375 402.75 642.75 441.25 642.75 441.25 652.375Z"/></g></svg>