<svg width="45" height="46" xmlns="http://www.w3.org/2000/svg" xmlns:xlink="http://www.w3.org/1999/xlink" overflow="hidden"><defs><clipPath id="clip0"><rect x="247" y="681" width="45" height="46"/></clipPath></defs><g clip-path="url(#clip0)" transform="translate(-247 -681)"><path d="M22.5 20.625C20.1562 20.625 18.2812 18.75 18.2812 16.4062 18.2812 14.0625 20.1562 12.1875 22.5 12.1875 24.8438 12.1875 26.7188 14.0625 26.7188 16.4062 26.7188 18.75 24.8438 20.625 22.5 20.625ZM22.5 6.5625C19.2656 6.5625 16.2188 8.15625 14.3906 10.875 12.5625 13.5469 12.1875 16.9688 13.3594 20.0156L17.8125 29.8594 21.6562 37.9219C21.7969 38.25 22.125 38.4375 22.5 38.4375 22.875 38.4375 23.2031 38.25 23.3438 37.9219L27.1875 29.8594 31.6406 20.0156C32.8125 16.9688 32.4375 13.5469 30.6094 10.875 28.7812 8.15625 25.7344 6.5625 22.5 6.5625Z" transform="matrix(1 0 0 1.02222 247 681)"/></g></svg>