<svg width="36" height="36" xmlns="http://www.w3.org/2000/svg" xmlns:xlink="http://www.w3.org/1999/xlink" overflow="hidden"><defs><clipPath id="clip0"><rect x="306" y="686" width="36" height="36"/></clipPath></defs><g clip-path="url(#clip0)" transform="translate(-306 -686)"><path d="M334.8 709.85C333.15 708.5 331.05 707.6 328.95 707 327.45 706.55 325.8 706.25 324 706.25 322.35 706.25 320.7 706.55 319.05 707 316.95 707.6 314.85 708.65 313.2 709.85 312.45 710.45 312 711.35 312 712.25L312 718.25 336 718.25 336 712.25C336 711.35 335.55 710.45 334.8 709.85Z"/><path d="M318.15 693.65C318.375 693.65 318.562 693.575 318.675 693.425L318.675 693.425C320.062 692.075 321.938 691.25 324 691.25 328.125 691.25 331.5 694.625 331.5 698.75L331.5 700.475 327.188 701.9C327 701.825 326.812 701.75 326.625 701.75 325.987 701.75 325.5 702.237 325.5 702.875 325.5 703.513 325.987 704 326.625 704 327.075 704 327.487 703.737 327.675 703.325L333.638 701.338C333.938 701.225 334.163 700.963 334.163 700.625L334.163 697.25C334.163 696.838 333.825 696.5 333.413 696.5L332.737 696.5C331.725 692.638 328.2 689.75 324 689.75 321.562 689.75 319.35 690.725 317.7 692.3 317.513 692.45 317.4 692.638 317.4 692.9 317.4 693.312 317.737 693.65 318.15 693.65Z"/><path d="M329.962 699.388C330 699.162 330 698.975 330 698.75 330 695.45 327.3 692.75 324 692.75 320.7 692.75 318 695.45 318 698.75 318 702.05 320.7 704.75 324 704.75 324.112 704.75 324.263 704.75 324.375 704.713L324.375 702.875 324.375 702.875C324.375 702.537 324.45 702.2 324.6 701.862 324.862 701.338 325.312 700.925 325.913 700.737L329.962 699.388Z"/></g></svg>